# xmcd CD database file
# Copyright (C) 1997 Ti Kan
# 
# Track frame offsets:
#     183
#     19920
#     36180
#     50888
#     65145
#     84120
#     100163
#     114965
#     133513
#     152000
#     169838
#     190435
# 
# Disc length: 2820 seconds
# 
# Revision: 1
# Processed by: cddbd v1.4b41PL1 Copyright (c) Steve Scherf et al.
# Submitted via: DiscPlay 4.0.4
# 
DISCID=9f0b020c
DTITLE=Gordon - Kon ik maar even bij je zijn
DYEAR=1900
DGENRE=
TTITLE0=Blijf je vannacht bij mij
TTITLE1=Nu zet ik de wereld op zijn kop
TTITLE2=Ik hou van jou
TTITLE3=Ik wil naar Amsterdam
TTITLE4=Als alles wat je zegt echt waar zou zijn
TTITLE5=Wat echte liefde is
TTITLE6=Jong voor altijd
TTITLE7=Het had ook anders kunnen zijn
TTITLE8=Liefde zonder eind
TTITLE9=Scheiding
TTITLE10=Je moet hem laten gaan
TTITLE11=Kon ik maat even bij je zijn
EXTD=
EXTT0=
EXTT1=
EXTT2=
EXTT3=
EXTT4=
EXTT5=
EXTT6=
EXTT7=
EXTT8=
EXTT9=
EXTT10=
EXTT11=
PLAYORDER=
